<svg width="18" height="19" viewBox="0 0 18 19" fill="none" xmlns="http://www.w3.org/2000/svg">
<path d="M5.8493 12.7625C5.90841 12.8069 5.97571 12.8393 6.04734 12.8577C6.11897 12.8761 6.19352 12.8801 6.26673 12.8697C6.33994 12.8592 6.41037 12.8345 6.47399 12.7968C6.53761 12.7591 6.59317 12.7092 6.6375 12.65C6.97807 12.1959 7.41969 11.8273 7.92738 11.5735C8.43507 11.3197 8.99488 11.1875 9.5625 11.1875C10.1301 11.1875 10.6899 11.3197 11.1976 11.5735C11.7053 11.8273 12.1469 12.1959 12.4875 12.65C12.5318 12.7091 12.5873 12.7589 12.6509 12.7965C12.7145 12.8342 12.7848 12.8589 12.858 12.8693C12.9311 12.8798 13.0055 12.8757 13.0771 12.8574C13.1487 12.8391 13.2159 12.8068 13.275 12.7625C13.3341 12.7182 13.3839 12.6627 13.4215 12.5991C13.4592 12.5355 13.4839 12.4652 13.4943 12.392C13.5048 12.3189 13.5007 12.2445 13.4824 12.1729C13.4641 12.1013 13.4318 12.0341 13.3875 11.975C12.8894 11.3073 12.2252 10.7815 11.4609 10.4499C11.8798 10.0675 12.1732 9.56742 12.3028 9.01526C12.4323 8.4631 12.3919 7.88468 12.1868 7.35591C11.9817 6.82713 11.6216 6.37271 11.1536 6.05228C10.6857 5.73185 10.1318 5.56038 9.56461 5.56038C8.99746 5.56038 8.44356 5.73185 7.9756 6.05228C7.50764 6.37271 7.14749 6.82713 6.94241 7.35591C6.73734 7.88468 6.69691 8.4631 6.82645 9.01526C6.95599 9.56742 7.24944 10.0675 7.66828 10.4499C6.9025 10.7809 6.2368 11.3067 5.7375 11.975C5.64791 12.0943 5.60937 12.2442 5.63033 12.3919C5.6513 12.5396 5.73006 12.6729 5.8493 12.7625ZM7.875 8.375C7.875 8.04124 7.97397 7.71498 8.1594 7.43748C8.34482 7.15997 8.60837 6.94368 8.91672 6.81595C9.22507 6.68823 9.56437 6.65481 9.89172 6.71992C10.2191 6.78504 10.5197 6.94576 10.7557 7.18176C10.9917 7.41776 11.1525 7.71844 11.2176 8.04578C11.2827 8.37313 11.2493 8.71243 11.1215 9.02078C10.9938 9.32913 10.7775 9.59268 10.5 9.77811C10.2225 9.96353 9.89626 10.0625 9.5625 10.0625C9.11495 10.0625 8.68572 9.88471 8.36926 9.56824C8.05279 9.25178 7.875 8.82255 7.875 8.375ZM14.625 2.1875H4.5C4.20163 2.1875 3.91548 2.30603 3.7045 2.517C3.49353 2.72798 3.375 3.01413 3.375 3.3125V5H2.25C2.10082 5 1.95774 5.05926 1.85225 5.16475C1.74676 5.27024 1.6875 5.41332 1.6875 5.5625C1.6875 5.71168 1.74676 5.85476 1.85225 5.96025C1.95774 6.06574 2.10082 6.125 2.25 6.125H3.375V8.9375H2.25C2.10082 8.9375 1.95774 8.99676 1.85225 9.10225C1.74676 9.20774 1.6875 9.35082 1.6875 9.5C1.6875 9.64918 1.74676 9.79226 1.85225 9.89775C1.95774 10.0032 2.10082 10.0625 2.25 10.0625H3.375V12.875H2.25C2.10082 12.875 1.95774 12.9343 1.85225 13.0398C1.74676 13.1452 1.6875 13.2883 1.6875 13.4375C1.6875 13.5867 1.74676 13.7298 1.85225 13.8352C1.95774 13.9407 2.10082 14 2.25 14H3.375V15.6875C3.375 15.9859 3.49353 16.272 3.7045 16.483C3.91548 16.694 4.20163 16.8125 4.5 16.8125H14.625C14.9234 16.8125 15.2095 16.694 15.4205 16.483C15.6315 16.272 15.75 15.9859 15.75 15.6875V3.3125C15.75 3.01413 15.6315 2.72798 15.4205 2.517C15.2095 2.30603 14.9234 2.1875 14.625 2.1875ZM14.625 15.6875H4.5V3.3125H14.625V15.6875Z" fill="#A11C5C"/>
</svg>
