<svg width="13" height="13" viewBox="0 0 13 13" fill="none" xmlns="http://www.w3.org/2000/svg">
<path d="M12.5753 10.071C12.5753 10.2317 12.5456 10.4415 12.486 10.7005C12.4265 10.9594 12.364 11.1633 12.2985 11.3121C12.1735 11.6097 11.8105 11.9252 11.2093 12.2585C10.6497 12.5621 10.0962 12.7139 9.54855 12.7139C9.38784 12.7139 9.2301 12.7035 9.07534 12.6826C8.92057 12.6618 8.74944 12.6246 8.56194 12.571C8.37444 12.5174 8.23456 12.4743 8.1423 12.4415C8.05004 12.4088 7.88486 12.3478 7.64676 12.2585C7.40867 12.1692 7.26284 12.1157 7.20926 12.0978C6.62593 11.8895 6.1051 11.6424 5.64676 11.3567C4.89081 10.8865 4.1051 10.2436 3.28962 9.42815C2.47414 8.61268 1.83129 7.82696 1.36105 7.07101C1.07533 6.61268 0.828311 6.09184 0.619978 5.50851C0.602121 5.45494 0.548549 5.3091 0.459263 5.07101C0.369978 4.83291 0.308966 4.66774 0.276228 4.57547C0.24349 4.48321 0.200335 4.34333 0.146763 4.15583C0.093192 3.96833 0.0559896 3.7972 0.0351562 3.64244C0.0143229 3.48768 0.00390625 3.32994 0.00390625 3.16922C0.00390625 2.6216 0.155692 2.06803 0.459263 1.50851C0.792597 0.907319 1.10807 0.544224 1.40569 0.419224C1.5545 0.353747 1.75837 0.291247 2.0173 0.231724C2.27623 0.1722 2.48605 0.142438 2.64676 0.142438C2.7301 0.142438 2.7926 0.151366 2.83426 0.169224C2.94141 0.204938 3.09914 0.431129 3.30748 0.847795C3.37295 0.960891 3.46224 1.1216 3.57534 1.32994C3.68843 1.53827 3.7926 1.72726 3.88784 1.8969C3.98307 2.06655 4.07534 2.22577 4.16462 2.37458C4.18248 2.39839 4.23456 2.4728 4.32087 2.5978C4.40718 2.7228 4.47117 2.82845 4.51284 2.91476C4.5545 3.00107 4.57534 3.08589 4.57534 3.16922C4.57534 3.28827 4.49051 3.43708 4.32087 3.61565C4.15123 3.79422 3.9667 3.95791 3.7673 4.10672C3.56789 4.25553 3.38337 4.41327 3.21373 4.57994C3.04409 4.7466 2.95926 4.88351 2.95926 4.99065C2.95926 5.04422 2.97414 5.11119 3.00391 5.19155C3.03367 5.2719 3.05897 5.33291 3.0798 5.37458C3.10063 5.41625 3.1423 5.48768 3.2048 5.58887C3.2673 5.69006 3.30153 5.7466 3.30748 5.75851C3.75986 6.57399 4.27772 7.27339 4.86105 7.85672C5.44438 8.44006 6.14379 8.95791 6.95926 9.4103C6.97117 9.41625 7.02772 9.45047 7.12891 9.51297C7.2301 9.57547 7.30153 9.61714 7.34319 9.63797C7.38486 9.65881 7.44587 9.68411 7.52623 9.71387C7.60659 9.74363 7.67355 9.75851 7.72712 9.75851C7.83426 9.75851 7.97117 9.67369 8.13784 9.50405C8.3045 9.3344 8.46224 9.14988 8.61105 8.95047C8.75986 8.75107 8.92355 8.56655 9.10212 8.3969C9.28069 8.22726 9.4295 8.14244 9.54855 8.14244C9.63188 8.14244 9.7167 8.16327 9.80301 8.20494C9.88932 8.2466 9.99498 8.31059 10.12 8.3969C10.245 8.48321 10.3194 8.5353 10.3432 8.55315C10.492 8.64244 10.6512 8.7347 10.8209 8.82994C10.9905 8.92518 11.1795 9.02934 11.3878 9.14244C11.5962 9.25553 11.7569 9.34482 11.87 9.4103C12.2866 9.61863 12.5128 9.77637 12.5485 9.88351C12.5664 9.92518 12.5753 9.98768 12.5753 10.071Z" fill="#009A09"/>
</svg>
