<svg width="22" height="22" viewBox="0 0 22 22" fill="none" xmlns="http://www.w3.org/2000/svg">
<path d="M3.56641 4.07861H8.91541V9.42762H3.56641V4.07861ZM12.4814 4.07861H17.8304V9.42762H12.4814V4.07861ZM3.56641 12.9936H8.91541V18.3426H3.56641V12.9936ZM12.4814 15.6681C12.4814 16.3774 12.7632 17.0577 13.2648 17.5593C13.7663 18.0608 14.4466 18.3426 15.1559 18.3426C15.8652 18.3426 16.5455 18.0608 17.0471 17.5593C17.5486 17.0577 17.8304 16.3774 17.8304 15.6681C17.8304 14.9588 17.5486 14.2785 17.0471 13.777C16.5455 13.2754 15.8652 12.9936 15.1559 12.9936C14.4466 12.9936 13.7663 13.2754 13.2648 13.777C12.7632 14.2785 12.4814 14.9588 12.4814 15.6681Z" stroke="#C9184A" stroke-width="1.4264" stroke-linecap="round" stroke-linejoin="round"/>
</svg>
