<svg width="17" height="17" viewBox="0 0 17 17" fill="none" xmlns="http://www.w3.org/2000/svg">
<path fill-rule="evenodd" clip-rule="evenodd" d="M4.60866 0.166992H12.3912C15.2253 0.166992 16.8253 1.77449 16.8337 4.60866V12.392C16.8337 15.2253 15.2253 16.8337 12.3912 16.8337H4.60866C1.77449 16.8337 0.166992 15.2253 0.166992 12.392V4.60866C0.166992 1.77449 1.77449 0.166992 4.60866 0.166992ZM8.54094 13.3834C8.9001 13.3834 9.19927 13.1167 9.2326 12.7584V4.26673C9.26594 4.0084 9.14177 3.74923 8.91677 3.6084C8.6826 3.46673 8.39927 3.46673 8.1751 3.6084C7.94927 3.74923 7.8251 4.0084 7.84927 4.26673V12.7584C7.89177 13.1167 8.19093 13.3834 8.54094 13.3834ZM12.3753 13.3837C12.7253 13.3837 13.0245 13.117 13.067 12.7587V10.0253C13.0912 9.75783 12.967 9.50866 12.7412 9.36699C12.517 9.22533 12.2337 9.22533 12.0003 9.36699C11.7745 9.50866 11.6503 9.75783 11.6837 10.0253V12.7587C11.717 13.117 12.0162 13.3837 12.3753 13.3837ZM5.34954 12.7585C5.31621 13.1168 5.01704 13.3835 4.65787 13.3835C4.29954 13.3835 3.99954 13.1168 3.96704 12.7585V7.00013C3.94204 6.74096 4.06621 6.48346 4.29204 6.3418C4.51621 6.20013 4.80037 6.20013 5.02537 6.3418C5.24954 6.48346 5.37537 6.74096 5.34954 7.00013V12.7585Z" fill="#A11C5C"/>
</svg>
