<svg width="22" height="22" viewBox="0 0 22 22" fill="none" xmlns="http://www.w3.org/2000/svg">
<path fill-rule="evenodd" clip-rule="evenodd" d="M1.81445 10.9036C1.81445 6.12295 5.63503 1.81494 10.9076 1.81494C16.0622 1.81494 19.9645 6.04116 19.9645 10.8763C19.9645 16.484 15.3907 19.9649 10.8895 19.9649C9.40115 19.9649 7.7495 19.565 6.42455 18.7834C5.96173 18.5017 5.5715 18.2926 5.07238 18.4562L3.23923 19.0015C2.7764 19.147 2.35895 18.7834 2.49508 18.2926L3.1031 16.2568C3.20293 15.975 3.18478 15.6751 3.03958 15.4388C2.25913 14.0028 1.81445 12.4305 1.81445 10.9036ZM6.68759 12.076C6.05234 12.076 5.52599 11.5489 5.52599 10.9127C5.52599 10.2674 6.04326 9.74936 6.68759 9.74936C7.33191 9.74936 7.84919 10.2674 7.84919 10.9127C7.84919 11.5489 7.33191 12.067 6.68759 12.076ZM9.7091 10.9039C9.7091 11.5491 10.2264 12.0672 10.8707 12.0763C11.515 12.0763 12.0323 11.5491 12.0323 10.9129C12.0323 10.2677 11.515 9.7496 10.8707 9.7496C10.2355 9.74051 9.7091 10.2677 9.7091 10.9039ZM13.8933 10.9128C13.8933 11.549 14.4106 12.0762 15.0549 12.0762C15.6992 12.0762 16.2165 11.549 16.2165 10.9128C16.2165 10.2675 15.6992 9.74948 15.0549 9.74948C14.4106 9.74948 13.8933 10.2675 13.8933 10.9128Z" fill="white"/>
</svg>
