<svg width="22" height="22" viewBox="0 0 22 22" fill="none" xmlns="http://www.w3.org/2000/svg">
<path fill-rule="evenodd" clip-rule="evenodd" d="M1.81494 10.9036C1.81494 6.12295 5.63552 1.81494 10.9081 1.81494C16.0627 1.81494 19.9649 6.04116 19.9649 10.8763C19.9649 16.484 15.3911 19.9649 10.8899 19.9649C9.40164 19.9649 7.74999 19.565 6.42504 18.7834C5.96222 18.5017 5.57199 18.2926 5.07287 18.4562L3.23972 19.0015C2.77689 19.147 2.35944 18.7834 2.49557 18.2926L3.10359 16.2568C3.20342 15.975 3.18527 15.6751 3.04007 15.4388C2.25962 14.0028 1.81494 12.4305 1.81494 10.9036ZM6.68813 12.0761C6.05288 12.0761 5.52653 11.549 5.52653 10.9128C5.52653 10.2675 6.04381 9.74942 6.68813 9.74942C7.33246 9.74942 7.84973 10.2675 7.84973 10.9128C7.84973 11.549 7.33246 12.067 6.68813 12.0761ZM9.71034 10.9039C9.71034 11.5492 10.2276 12.0673 10.8719 12.0763C11.5163 12.0763 12.0335 11.5492 12.0335 10.913C12.0335 10.2677 11.5163 9.74966 10.8719 9.74966C10.2367 9.74057 9.71034 10.2677 9.71034 10.9039ZM13.8939 10.9129C13.8939 11.5491 14.4112 12.0762 15.0555 12.0762C15.6999 12.0762 16.2171 11.5491 16.2171 10.9129C16.2171 10.2676 15.6999 9.74954 15.0555 9.74954C14.4112 9.74954 13.8939 10.2676 13.8939 10.9129Z" fill="#A11C5C"/>
</svg>
