<svg width="18" height="19" viewBox="0 0 18 19" fill="none" xmlns="http://www.w3.org/2000/svg">
<path fill-rule="evenodd" clip-rule="evenodd" d="M9.18525 16.2267C10.0478 15.444 10.8462 14.5933 11.5725 13.6827C13.1025 11.7605 14.0332 9.86525 14.0963 8.18C14.1212 7.4951 14.0078 6.81219 13.7629 6.17209C13.518 5.53198 13.1466 4.9478 12.6709 4.45444C12.1951 3.96109 11.6249 3.56868 10.9941 3.30065C10.3633 3.03263 9.68498 2.89449 8.99963 2.89449C8.31427 2.89449 7.63594 3.03263 7.00516 3.30065C6.37439 3.56868 5.8041 3.96109 5.32838 4.45444C4.85265 4.9478 4.48125 5.53198 4.23634 6.17209C3.99144 6.81219 3.87807 7.4951 3.903 8.18C3.96675 9.86525 4.89825 11.7605 6.4275 13.6827C7.15385 14.5933 7.95217 15.444 8.81475 16.2267C8.89775 16.3018 8.9595 16.3562 9 16.3903L9.18525 16.2267ZM8.4465 17.1005C8.4465 17.1005 3 12.5135 3 8C3 6.4087 3.63214 4.88258 4.75736 3.75736C5.88258 2.63214 7.4087 2 9 2C10.5913 2 12.1174 2.63214 13.2426 3.75736C14.3679 4.88258 15 6.4087 15 8C15 12.5135 9.5535 17.1005 9.5535 17.1005C9.2505 17.3795 8.75175 17.3765 8.4465 17.1005ZM9 10.1C9.55695 10.1 10.0911 9.87875 10.4849 9.48492C10.8788 9.0911 11.1 8.55695 11.1 8C11.1 7.44305 10.8788 6.9089 10.4849 6.51508C10.0911 6.12125 9.55695 5.9 9 5.9C8.44305 5.9 7.9089 6.12125 7.51508 6.51508C7.12125 6.9089 6.9 7.44305 6.9 8C6.9 8.55695 7.12125 9.0911 7.51508 9.48492C7.9089 9.87875 8.44305 10.1 9 10.1ZM9 11C8.20435 11 7.44129 10.6839 6.87868 10.1213C6.31607 9.55871 6 8.79565 6 8C6 7.20435 6.31607 6.44129 6.87868 5.87868C7.44129 5.31607 8.20435 5 9 5C9.79565 5 10.5587 5.31607 11.1213 5.87868C11.6839 6.44129 12 7.20435 12 8C12 8.79565 11.6839 9.55871 11.1213 10.1213C10.5587 10.6839 9.79565 11 9 11Z" fill="#A11C5C"/>
</svg>
