<svg width="21" height="19" viewBox="0 0 21 19" fill="none" xmlns="http://www.w3.org/2000/svg">
<g clip-path="url(#clip0_476_2889)">
<path d="M17.8525 2.48023C17.6228 2.32765 17.3588 2.23474 17.0842 2.20993C16.8096 2.18511 16.5331 2.22918 16.2798 2.33813L12.8977 3.7876L8.39773 1.89286C8.22108 1.81729 8.03093 1.77832 7.83878 1.77832C7.64664 1.77832 7.45649 1.81729 7.27984 1.89286L3.14931 3.63602C2.82732 3.77607 2.5539 4.00816 2.36343 4.30314C2.17296 4.59812 2.07393 4.94282 2.07878 5.29392V15.9518C2.07704 16.2514 2.1497 16.5467 2.29025 16.8113C2.4308 17.0758 2.63484 17.3013 2.88405 17.4676C3.11369 17.6202 3.37776 17.7131 3.65236 17.7379C3.92695 17.7627 4.2034 17.7187 4.45668 17.6097L7.83878 16.1602L12.3388 18.055C12.5151 18.1316 12.7055 18.1703 12.8977 18.1687C13.0898 18.1689 13.28 18.1303 13.4567 18.055L17.5872 16.2834C17.9092 16.1433 18.1826 15.9112 18.3731 15.6163C18.5636 15.3213 18.6626 14.9766 18.6577 14.6255V3.99602C18.6595 3.69645 18.5868 3.40113 18.4463 3.13657C18.3057 2.87201 18.1017 2.64648 17.8525 2.48023ZM8.54931 3.4276L12.1872 4.98128V16.4729L8.54931 14.9192V3.4276ZM3.89773 16.3023C3.86173 16.3231 3.82088 16.3341 3.77931 16.3341C3.73774 16.3341 3.69689 16.3231 3.66089 16.3023C3.60804 16.2653 3.56551 16.2155 3.53733 16.1574C3.50914 16.0994 3.49624 16.0352 3.49984 15.9708V5.29392C3.49868 5.21827 3.52077 5.14409 3.56312 5.0814C3.60548 5.01871 3.66606 4.97054 3.73668 4.94339L7.12826 3.47497V14.9192L3.89773 16.3023ZM17.2367 14.6539C17.2402 14.7263 17.2223 14.7982 17.1852 14.8605C17.1481 14.9229 17.0936 14.9729 17.0283 15.0044L13.6083 16.4729V5.02865L16.8388 3.64549C16.8748 3.62471 16.9156 3.61376 16.9572 3.61376C16.9988 3.61376 17.0396 3.62471 17.0756 3.64549C17.1285 3.68249 17.171 3.73236 17.1992 3.79038C17.2274 3.84841 17.2403 3.91267 17.2367 3.97707V14.6539Z" fill="#A11C5C"/>
</g>
<defs>
<clipPath id="clip0_476_2889">
<rect width="21" height="18" fill="white" transform="translate(0 0.5)"/>
</clipPath>
</defs>
</svg>
