<svg width="22" height="22" viewBox="0 0 22 22" fill="none" xmlns="http://www.w3.org/2000/svg">
<path fill-rule="evenodd" clip-rule="evenodd" d="M7.08724 1.81494H14.693C17.4963 1.81494 19.0572 3.43029 19.0572 6.19817V15.5726C19.0572 18.3859 17.4963 19.9649 14.693 19.9649H7.08724C4.32844 19.9649 2.72217 18.3859 2.72217 15.5726V6.19817C2.72217 3.43029 4.32844 1.81494 7.08724 1.81494ZM7.3322 6.04452V6.03545H10.0447C10.4359 6.03545 10.7535 6.35307 10.7535 6.74239C10.7535 7.1426 10.4359 7.46023 10.0447 7.46023H7.3322C6.94107 7.46023 6.62435 7.1426 6.62435 6.75237C6.62435 6.36215 6.94107 6.04452 7.3322 6.04452ZM7.3322 11.5618H14.447C14.8372 11.5618 15.1549 11.2442 15.1549 10.854C15.1549 10.4637 14.8372 10.1452 14.447 10.1452H7.3322C6.94107 10.1452 6.62435 10.4637 6.62435 10.854C6.62435 11.2442 6.94107 11.5618 7.3322 11.5618ZM7.33234 15.7093H14.4471C14.8092 15.673 15.0824 15.3636 15.0824 15.0015C15.0824 14.6294 14.8092 14.3209 14.4471 14.2846H7.33234C7.06009 14.2573 6.79692 14.3844 6.65172 14.6203C6.50652 14.8472 6.50652 15.1467 6.65172 15.3826C6.79692 15.6095 7.06009 15.7456 7.33234 15.7093Z" fill="#A11C5C"/>
</svg>
