<svg width="22" height="22" viewBox="0 0 22 22" fill="none" xmlns="http://www.w3.org/2000/svg">
<path fill-rule="evenodd" clip-rule="evenodd" d="M7.08773 1.81494H14.6935C17.4968 1.81494 19.0577 3.43029 19.0577 6.19817V15.5726C19.0577 18.3859 17.4968 19.9649 14.6935 19.9649H7.08773C4.32893 19.9649 2.72266 18.3859 2.72266 15.5726V6.19817C2.72266 3.43029 4.32893 1.81494 7.08773 1.81494ZM7.33377 6.04393V6.03486H10.0463C10.4374 6.03486 10.755 6.35248 10.755 6.7418C10.755 7.14201 10.4374 7.45963 10.0463 7.45963H7.33377C6.94264 7.45963 6.62592 7.14201 6.62592 6.75178C6.62592 6.36156 6.94264 6.04393 7.33377 6.04393ZM7.33377 11.5615H14.4486C14.8388 11.5615 15.1564 11.2439 15.1564 10.8537C15.1564 10.4634 14.8388 10.1449 14.4486 10.1449H7.33377C6.94264 10.1449 6.62592 10.4634 6.62592 10.8537C6.62592 11.2439 6.94264 11.5615 7.33377 11.5615ZM7.33391 15.7088H14.4487C14.8108 15.6725 15.084 15.363 15.084 15.0009C15.084 14.6288 14.8108 14.3203 14.4487 14.284H7.33391C7.06166 14.2568 6.79849 14.3838 6.65329 14.6198C6.50809 14.8466 6.50809 15.1461 6.65329 15.3821C6.79849 15.6089 7.06166 15.7451 7.33391 15.7088Z" fill="white"/>
</svg>
