<svg width="20" height="20" viewBox="0 0 20 20" fill="none" xmlns="http://www.w3.org/2000/svg">
<g clip-path="url(#clip0_667_459)">
<path d="M3.0249 4.9916V17.3941C3.0249 17.5947 3.10458 17.787 3.2464 17.9289C3.38823 18.0707 3.58058 18.1504 3.78115 18.1504H18.6037C18.8042 18.1504 18.9966 18.0707 19.1384 17.9289C19.2802 17.787 19.3599 17.5947 19.3599 17.3941V4.9916C19.3599 4.79103 19.2802 4.59868 19.1384 4.45685C18.9966 4.31503 18.8042 4.23535 18.6037 4.23535H3.78115C3.58058 4.23535 3.38823 4.31503 3.2464 4.45685C3.10458 4.59868 3.0249 4.79103 3.0249 4.9916ZM14.1093 6.55439C14.4528 6.55648 14.7881 6.66027 15.0727 6.85266C15.3573 7.04505 15.5786 7.31743 15.7087 7.63544C15.8387 7.95345 15.8716 8.30284 15.8033 8.63955C15.735 8.97625 15.5685 9.28519 15.3249 9.52739C15.0812 9.76958 14.7712 9.93419 14.4341 10.0005C14.097 10.0667 13.7478 10.0317 13.4306 9.8997C13.1134 9.76775 12.8424 9.54481 12.6517 9.259C12.4611 8.9732 12.3593 8.63733 12.3593 8.29377C12.3612 7.83121 12.5465 7.38829 12.8746 7.0622C13.2027 6.73611 13.6467 6.55349 14.1093 6.55439ZM4.22469 16.9906V13.3803L8.86656 9.21337L12.4126 12.7432L8.1398 16.9906H4.22469ZM18.1499 16.9906H9.79334L15.2603 11.5456L18.1499 14.0133V16.9906Z" fill="#A11C5C"/>
<path d="M0.75625 1.20996C0.55568 1.20996 0.363325 1.28964 0.2215 1.43146C0.0796761 1.57329 0 1.76564 0 1.96621L0 14.9737C0 15.1743 0.0796761 15.3666 0.2215 15.5085C0.363325 15.6503 0.55568 15.73 0.75625 15.73H1.815V3.78121C1.815 3.58064 1.89468 3.38829 2.0365 3.24646C2.17832 3.10464 2.37068 3.02496 2.57125 3.02496H16.94V1.96621C16.94 1.76564 16.8603 1.57329 16.7185 1.43146C16.5767 1.28964 16.3843 1.20996 16.1837 1.20996H0.75625Z" fill="#A11C5C"/>
</g>
<defs>
<clipPath id="clip0_667_459">
<rect width="19.36" height="19.36" fill="white"/>
</clipPath>
</defs>
</svg>
