<svg width="28" height="28" viewBox="0 0 28 28" fill="none" xmlns="http://www.w3.org/2000/svg">
<path d="M13.416 19.2474H14.5827V14.5807H19.2493V13.4141H14.5827V8.7474H13.416V13.4141H8.74935V14.5807H13.416V19.2474ZM6.55018 23.3307C6.01352 23.3307 5.56552 23.1511 5.20618 22.7917C4.84607 22.4316 4.66602 21.9832 4.66602 21.4466V6.54823C4.66602 6.01156 4.84607 5.56356 5.20618 5.20423C5.56552 4.84412 6.01352 4.66406 6.55018 4.66406H21.4485C21.9852 4.66406 22.4332 4.84412 22.7925 5.20423C23.1526 5.56356 23.3327 6.01156 23.3327 6.54823V21.4466C23.3327 21.9832 23.153 22.4312 22.7937 22.7906C22.4336 23.1507 21.9852 23.3307 21.4485 23.3307H6.55018ZM6.55018 22.1641H21.4485C21.6274 22.1641 21.7919 22.0894 21.942 21.9401C22.0913 21.79 22.166 21.6255 22.166 21.4466V6.54823C22.166 6.36934 22.0913 6.20484 21.942 6.05473C21.7919 5.9054 21.6274 5.83073 21.4485 5.83073H6.55018C6.37129 5.83073 6.20679 5.9054 6.05668 6.05473C5.90735 6.20484 5.83268 6.36934 5.83268 6.54823V21.4466C5.83268 21.6255 5.90735 21.79 6.05668 21.9401C6.20679 22.0894 6.37129 22.1641 6.55018 22.1641Z" fill="#1B1B1B"/>
</svg>
