<svg width="19" height="18" viewBox="0 0 19 18" fill="none" xmlns="http://www.w3.org/2000/svg">
<path d="M9.03615 0C4.06627 0 0 4.05723 0 9.05422C0 13.5723 3.30723 17.3223 7.62651 18V11.6747H5.33133V9.05422H7.62651V7.05723C7.62651 4.78916 8.97289 3.54217 11.0422 3.54217C12.0271 3.54217 13.0572 3.71386 13.0572 3.71386V5.94578H11.9187C10.7982 5.94578 10.4458 6.64157 10.4458 7.35542V9.05422H12.9578L12.5512 11.6747H10.4458V18C12.5751 17.6637 14.514 16.5773 15.9126 14.9368C17.3111 13.2963 18.0771 11.2099 18.0723 9.05422C18.0723 4.05723 14.006 0 9.03615 0Z" fill="#A11C5C"/>
</svg>
