<svg width="20" height="17" viewBox="0 0 20 17" fill="none" xmlns="http://www.w3.org/2000/svg">
<path d="M5.87388 3.91922C5.87388 3.91922 5.96763 4.01297 6.15513 4.20047C6.34263 4.38797 6.43638 4.74958 6.43638 5.2853C6.43638 5.82101 6.24888 6.27637 5.87388 6.65137C5.49888 7.02637 5.04353 7.21387 4.50781 7.21387C3.9721 7.21387 3.51674 7.02637 3.14174 6.65137C2.76674 6.27637 2.57924 5.82101 2.57924 5.2853C2.57924 4.74958 2.76674 4.29422 3.14174 3.91922C3.51674 3.54422 3.9721 3.35672 4.50781 3.35672C5.04353 3.35672 5.49888 3.54422 5.87388 3.91922ZM16.7221 9.14244V13.6424H2.57924V11.7139L5.79353 8.49958L7.40067 10.1067L12.5435 4.96387L16.7221 9.14244ZM17.6864 2.07101H1.61496C1.5279 2.07101 1.45257 2.10282 1.38895 2.16643C1.32533 2.23005 1.29353 2.30539 1.29353 2.39244V14.6067C1.29353 14.6938 1.32533 14.7691 1.38895 14.8327C1.45257 14.8963 1.5279 14.9282 1.61496 14.9282H17.6864C17.7734 14.9282 17.8488 14.8963 17.9124 14.8327C17.976 14.7691 18.0078 14.6938 18.0078 14.6067V2.39244C18.0078 2.30539 17.976 2.23005 17.9124 2.16643C17.8488 2.10282 17.7734 2.07101 17.6864 2.07101ZM19.2935 2.39244V14.6067C19.2935 15.0487 19.1362 15.427 18.8214 15.7418C18.5067 16.0565 18.1283 16.2139 17.6864 16.2139H1.61496C1.17299 16.2139 0.794643 16.0565 0.479911 15.7418C0.165179 15.427 0.0078125 15.0487 0.0078125 14.6067V2.39244C0.0078125 1.95047 0.165179 1.57213 0.479911 1.25739C0.794643 0.942662 1.17299 0.785295 1.61496 0.785295H17.6864C18.1283 0.785295 18.5067 0.942662 18.8214 1.25739C19.1362 1.57213 19.2935 1.95047 19.2935 2.39244Z" fill="#4A4A4A"/>
</svg>
