<svg width="21" height="21" viewBox="0 0 21 21" fill="none" xmlns="http://www.w3.org/2000/svg">
<g clip-path="url(#clip0_533_949)">
<path d="M3.625 5.65625V18.4688C3.625 18.676 3.70731 18.8747 3.85382 19.0212C4.00034 19.1677 4.19905 19.25 4.40625 19.25H19.7188C19.926 19.25 20.1247 19.1677 20.2712 19.0212C20.4177 18.8747 20.5 18.676 20.5 18.4688V5.65625C20.5 5.44905 20.4177 5.25034 20.2712 5.10382C20.1247 4.95731 19.926 4.875 19.7188 4.875H4.40625C4.19905 4.875 4.00034 4.95731 3.85382 5.10382C3.70731 5.25034 3.625 5.44905 3.625 5.65625ZM15.0758 7.2707C15.4307 7.27286 15.777 7.38008 16.0711 7.57883C16.3651 7.77759 16.5937 8.05897 16.7281 8.38749C16.8624 8.71601 16.8964 9.07695 16.8258 9.42479C16.7553 9.77262 16.5833 10.0918 16.3316 10.342C16.0798 10.5922 15.7597 10.7622 15.4114 10.8307C15.0631 10.8991 14.7024 10.8629 14.3747 10.7266C14.047 10.5903 13.767 10.36 13.5701 10.0647C13.3731 9.76947 13.268 9.4225 13.268 9.06758C13.2699 8.58973 13.4614 8.13217 13.8003 7.7953C14.1392 7.45843 14.5979 7.26977 15.0758 7.2707ZM4.86445 18.052V14.3223L9.65977 10.0176L13.323 13.6641L8.90898 18.052H4.86445ZM19.25 18.052H10.6172L16.2648 12.427L19.25 14.9762V18.052Z" fill="white"/>
<path d="M1.28125 1.75C1.07405 1.75 0.875336 1.83231 0.728823 1.97882C0.58231 2.12534 0.5 2.32405 0.5 2.53125L0.5 15.9688C0.5 16.176 0.58231 16.3747 0.728823 16.5212C0.875336 16.6677 1.07405 16.75 1.28125 16.75H2.375V4.40625C2.375 4.19905 2.45731 4.00034 2.60382 3.85382C2.75034 3.70731 2.94905 3.625 3.15625 3.625H18V2.53125C18 2.32405 17.9177 2.12534 17.7712 1.97882C17.6247 1.83231 17.426 1.75 17.2188 1.75H1.28125Z" fill="white"/>
</g>
<defs>
<clipPath id="clip0_533_949">
<rect width="20" height="20" fill="white" transform="translate(0.5 0.5)"/>
</clipPath>
</defs>
</svg>
