<svg width="22" height="22" viewBox="0 0 22 22" fill="none" xmlns="http://www.w3.org/2000/svg">
<path fill-rule="evenodd" clip-rule="evenodd" d="M6.95998 1.81421H14.828C17.9044 1.81421 19.9645 3.97406 19.9645 7.18661V14.6018C19.9645 17.8053 17.9044 19.9642 14.828 19.9642H6.95998C3.88355 19.9642 1.81445 17.8053 1.81445 14.6018V7.18661C1.81445 3.97406 3.88355 1.81421 6.95998 1.81421ZM10.8806 8.2221C10.454 8.2221 10.1001 7.86727 10.1001 7.43257C10.1001 6.9879 10.454 6.63397 10.8987 6.63397C11.3343 6.63397 11.6882 6.9879 11.6882 7.43257C11.6882 7.86727 11.3343 8.2221 10.8806 8.2221ZM11.6788 14.3204C11.6788 14.756 11.3249 15.11 10.8802 15.11C10.4446 15.11 10.0907 14.756 10.0907 14.3204V10.3093C10.0907 9.87277 10.4446 9.51068 10.8802 9.51068C11.3249 9.51068 11.6788 9.87277 11.6788 10.3093V14.3204Z" fill="white"/>
</svg>
