<svg width="22" height="18" viewBox="0 0 22 18" fill="none" xmlns="http://www.w3.org/2000/svg">
<path d="M14.4004 4.5001C14.4004 4.2614 14.4952 4.03248 14.664 3.8637C14.8328 3.69492 15.0617 3.6001 15.3004 3.6001C15.5391 3.6001 15.768 3.69492 15.9368 3.8637C16.1056 4.03248 16.2004 4.2614 16.2004 4.5001C16.2004 4.73879 16.1056 4.96771 15.9368 5.13649C15.768 5.30528 15.5391 5.4001 15.3004 5.4001C15.0617 5.4001 14.8328 5.30528 14.664 5.13649C14.4952 4.96771 14.4004 4.73879 14.4004 4.5001Z" fill="#A11C5C"/>
<path fill-rule="evenodd" clip-rule="evenodd" d="M10.8004 4.7251C9.66659 4.7251 8.57923 5.1755 7.77751 5.97722C6.97579 6.77893 6.52539 7.8663 6.52539 9.0001C6.52539 10.1339 6.97579 11.2213 7.77751 12.023C8.57923 12.8247 9.66659 13.2751 10.8004 13.2751C11.9342 13.2751 13.0216 12.8247 13.8233 12.023C14.625 11.2213 15.0754 10.1339 15.0754 9.0001C15.0754 7.8663 14.625 6.77893 13.8233 5.97722C13.0216 5.1755 11.9342 4.7251 10.8004 4.7251ZM7.87539 9.0001C7.87539 8.22434 8.18356 7.48035 8.7321 6.93181C9.28065 6.38327 10.0246 6.0751 10.8004 6.0751C11.5761 6.0751 12.3201 6.38327 12.8687 6.93181C13.4172 7.48035 13.7254 8.22434 13.7254 9.0001C13.7254 9.77586 13.4172 10.5198 12.8687 11.0684C12.3201 11.6169 11.5761 11.9251 10.8004 11.9251C10.0246 11.9251 9.28065 11.6169 8.7321 11.0684C8.18356 10.5198 7.87539 9.77586 7.87539 9.0001Z" fill="#A11C5C"/>
<path fill-rule="evenodd" clip-rule="evenodd" d="M15.5322 0.749651C12.3871 0.400833 9.21297 0.400833 6.06781 0.749651C4.25701 0.952151 2.79451 2.37865 2.58211 4.19845C2.20961 7.38861 2.20961 10.6113 2.58211 13.8014C2.79451 15.6212 4.25611 17.0478 6.06781 17.2502C9.21301 17.5983 12.387 17.5983 15.5322 17.2502C17.343 17.0478 18.8055 15.6212 19.0179 13.8014C19.3904 10.6113 19.3904 7.38861 19.0179 4.19845C18.8055 2.37865 17.3439 0.952151 15.5322 0.749651ZM6.21721 2.09065C9.26308 1.75289 12.3369 1.75289 15.3828 2.09065C16.5798 2.22565 17.5383 3.16975 17.6778 4.35595C18.0388 7.44143 18.0388 10.5585 17.6778 13.644C17.6057 14.2245 17.3399 14.7637 16.9235 15.1746C16.507 15.5855 15.9643 15.844 15.3828 15.9084C12.3369 16.2461 9.26308 16.2461 6.21721 15.9084C5.63576 15.844 5.09298 15.5855 4.67655 15.1746C4.26012 14.7637 3.99437 14.2245 3.92221 13.644C3.56118 10.5585 3.56118 7.44143 3.92221 4.35595C3.99437 3.77541 4.26012 3.23615 4.67655 2.82528C5.09298 2.4144 5.63576 2.15501 6.21721 2.09065Z" fill="#A11C5C"/>
</svg>
