<svg width="24" height="24" viewBox="0 0 24 24" fill="none" xmlns="http://www.w3.org/2000/svg">
<path fill-rule="evenodd" clip-rule="evenodd" d="M8.25 2H15.75C19.2013 2 22 4.79875 22 8.25V15.75C22 19.2013 19.2013 22 15.75 22H8.25C4.79875 22 2 19.2013 2 15.75V8.25C2 4.79875 4.79875 2 8.25 2ZM15.75 20.125C18.1625 20.125 20.125 18.1625 20.125 15.75V8.25C20.125 5.8375 18.1625 3.875 15.75 3.875H8.25C5.8375 3.875 3.875 5.8375 3.875 8.25V15.75C3.875 18.1625 5.8375 20.125 8.25 20.125H15.75Z" fill="white"/>
<path fill-rule="evenodd" clip-rule="evenodd" d="M7 12C7 9.23875 9.23875 7 12 7C14.7613 7 17 9.23875 17 12C17 14.7613 14.7613 17 12 17C9.23875 17 7 14.7613 7 12ZM8.875 12C8.875 13.7225 10.2775 15.125 12 15.125C13.7225 15.125 15.125 13.7225 15.125 12C15.125 10.2762 13.7225 8.875 12 8.875C10.2775 8.875 8.875 10.2762 8.875 12Z" fill="white"/>
<circle cx="17.3752" cy="6.62719" r="0.66625" fill="white"/>
</svg>
