<svg width="18" height="17" viewBox="0 0 18 17" fill="none" xmlns="http://www.w3.org/2000/svg">
<path d="M16.7143 5.48619C16.7143 4.94378 16.6423 4.46498 16.4983 4.0498C16.3544 3.63463 16.1702 3.30483 15.9459 3.06041C15.7215 2.81599 15.4487 2.61677 15.1272 2.46275C14.8058 2.30873 14.4911 2.20494 14.183 2.15137C13.875 2.0978 13.5469 2.07101 13.1987 2.07101C12.8504 2.07101 12.4754 2.15639 12.0737 2.32715C11.6719 2.49791 11.3019 2.71219 10.9637 2.97001C10.6256 3.22782 10.3359 3.46889 10.0949 3.69322C9.85379 3.91755 9.6529 4.12347 9.49219 4.31097C9.37165 4.45829 9.20759 4.53195 9 4.53195C8.79241 4.53195 8.62835 4.45829 8.50781 4.31097C8.3471 4.12347 8.1462 3.91755 7.90513 3.69322C7.66406 3.46889 7.37444 3.22782 7.03627 2.97001C6.6981 2.71219 6.32812 2.49791 5.92634 2.32715C5.52455 2.15639 5.14955 2.07101 4.80134 2.07101C4.45312 2.07101 4.125 2.0978 3.81696 2.15137C3.50893 2.20494 3.1942 2.30873 2.87277 2.46275C2.55134 2.61677 2.27846 2.81599 2.05413 3.06041C1.8298 3.30483 1.64565 3.63463 1.50167 4.0498C1.3577 4.46498 1.28571 4.94378 1.28571 5.48619C1.28571 6.61119 1.91183 7.7998 3.16406 9.05204L9 14.677L14.8259 9.06208C16.0848 7.80315 16.7143 6.61119 16.7143 5.48619ZM18 5.48619C18 6.9661 17.2333 8.4728 15.6998 10.0063L9.44196 16.0331C9.32143 16.1536 9.17411 16.2139 9 16.2139C8.82589 16.2139 8.67857 16.1536 8.55804 16.0331L2.29018 9.98619C2.22321 9.93262 2.13114 9.84556 2.01395 9.72503C1.89676 9.60449 1.71094 9.38518 1.45647 9.0671C1.20201 8.74902 0.97433 8.42257 0.773438 8.08775C0.572545 7.75293 0.393415 7.3478 0.236049 6.87235C0.078683 6.3969 0 5.93485 0 5.48619C0 4.01297 0.425223 2.86119 1.27567 2.03083C2.12612 1.20047 3.30134 0.785295 4.80134 0.785295C5.21652 0.785295 5.64007 0.857283 6.07199 1.00126C6.50391 1.14523 6.90569 1.33943 7.27734 1.58385C7.649 1.82826 7.96875 2.05762 8.23661 2.2719C8.50446 2.48619 8.75893 2.71387 9 2.95494C9.24107 2.71387 9.49554 2.48619 9.76339 2.2719C10.0312 2.05762 10.351 1.82826 10.7227 1.58385C11.0943 1.33943 11.4961 1.14523 11.928 1.00126C12.3599 0.857283 12.7835 0.785295 13.1987 0.785295C14.6987 0.785295 15.8739 1.20047 16.7243 2.03083C17.5748 2.86119 18 4.01297 18 5.48619Z" fill="#4A4A4A"/>
</svg>
