<svg width="10" height="14" viewBox="0 0 10 14" fill="none" xmlns="http://www.w3.org/2000/svg">
<path d="M6.19531 6.33064C6.19531 6.33064 6.30692 6.21903 6.53013 5.99581C6.75335 5.7726 6.86496 5.34552 6.86496 4.71456C6.86496 4.08361 6.64174 3.54492 6.19531 3.09849C5.74888 2.65206 5.21019 2.42885 4.57924 2.42885C3.94829 2.42885 3.4096 2.65206 2.96317 3.09849C2.51674 3.54492 2.29353 4.08361 2.29353 4.71456C2.29353 5.34552 2.51674 5.88421 2.96317 6.33064C3.4096 6.77706 3.94829 7.00028 4.57924 7.00028C5.21019 7.00028 5.74888 6.77706 6.19531 6.33064ZM9.15067 4.71456C9.15067 5.36337 9.05246 5.89611 8.85603 6.31278L5.60603 13.2235C5.51079 13.4199 5.36942 13.5747 5.18192 13.6878C4.99442 13.8009 4.79353 13.8574 4.57924 13.8574C4.36496 13.8574 4.16406 13.8009 3.97656 13.6878C3.78906 13.5747 3.65067 13.4199 3.56138 13.2235L0.302455 6.31278C0.106027 5.89611 0.0078125 5.36337 0.0078125 4.71456C0.0078125 3.45266 0.454241 2.37528 1.3471 1.48242C2.23996 0.589564 3.31734 0.143135 4.57924 0.143135C5.84115 0.143135 6.91853 0.589564 7.81138 1.48242C8.70424 2.37528 9.15067 3.45266 9.15067 4.71456Z" fill="#4A4A4A"/>
</svg>
