<svg width="18" height="18" viewBox="0 0 18 18" fill="none" xmlns="http://www.w3.org/2000/svg">
<path fill-rule="evenodd" clip-rule="evenodd" d="M5.4375 7.5C5.4375 6.55517 5.81283 5.64903 6.48093 4.98093C7.14903 4.31283 8.05517 3.9375 9 3.9375C9.94483 3.9375 10.851 4.31283 11.5191 4.98093C12.1872 5.64903 12.5625 6.55517 12.5625 7.5C12.5625 8.44483 12.1872 9.35097 11.5191 10.0191C10.851 10.6872 9.94483 11.0625 9 11.0625C8.05517 11.0625 7.14903 10.6872 6.48093 10.0191C5.81283 9.35097 5.4375 8.44483 5.4375 7.5ZM9 5.0625C8.35353 5.0625 7.73355 5.31931 7.27643 5.77643C6.81931 6.23355 6.5625 6.85353 6.5625 7.5C6.5625 8.14647 6.81931 8.76645 7.27643 9.22357C7.73355 9.68069 8.35353 9.9375 9 9.9375C9.64647 9.9375 10.2665 9.68069 10.7236 9.22357C11.1807 8.76645 11.4375 8.14647 11.4375 7.5C11.4375 6.85353 11.1807 6.23355 10.7236 5.77643C10.2665 5.31931 9.64647 5.0625 9 5.0625Z" fill="#C9184A"/>
<path fill-rule="evenodd" clip-rule="evenodd" d="M2.64377 6.64275C2.77197 5.08785 3.48019 3.63802 4.62783 2.5811C5.77547 1.52419 7.2786 0.937495 8.83877 0.9375H9.16277C10.7229 0.937495 12.2261 1.52419 13.3737 2.5811C14.5214 3.63802 15.2296 5.08785 15.3578 6.64275C15.5004 8.37471 14.9654 10.0944 13.8653 11.4398L10.2705 15.8355C10.1167 16.0236 9.92296 16.1752 9.70337 16.2793C9.48377 16.3834 9.24379 16.4374 9.00077 16.4374C8.75775 16.4374 8.51777 16.3834 8.29818 16.2793C8.07858 16.1752 7.88486 16.0236 7.73102 15.8355L4.13627 11.4398C3.03611 10.0945 2.50103 8.37472 2.64377 6.64275ZM8.83877 2.0625C7.56113 2.06269 6.33027 2.54327 5.39051 3.40884C4.45075 4.27441 3.8708 5.46169 3.76577 6.735C3.64697 8.1764 4.09223 9.60764 5.00777 10.7273L8.60252 15.1238C8.65084 15.1829 8.71171 15.2306 8.78072 15.2633C8.84973 15.296 8.92515 15.313 9.00152 15.313C9.0779 15.313 9.15332 15.296 9.22232 15.2633C9.29133 15.2306 9.3522 15.1829 9.40052 15.1238L12.9953 10.7273C13.9103 9.60742 14.355 8.17619 14.2358 6.735C14.1307 5.46156 13.5507 4.27417 12.6108 3.40859C11.6708 2.543 10.4398 2.0625 9.16202 2.0625H8.83877Z" fill="#C9184A"/>
</svg>
