<svg width="22" height="22" viewBox="0 0 22 22" fill="none" xmlns="http://www.w3.org/2000/svg">
<path d="M10.6986 12.1518C10.0374 12.1518 9.39103 11.9558 8.84126 11.5884C8.29148 11.2211 7.86298 10.6989 7.60995 10.0881C7.35692 9.47719 7.29071 8.805 7.41971 8.15649C7.5487 7.50799 7.86711 6.9123 8.33465 6.44476C8.80219 5.97721 9.39788 5.65881 10.0464 5.52981C10.6949 5.40082 11.3671 5.46702 11.978 5.72006C12.5888 5.97309 13.111 6.40159 13.4783 6.95136C13.8457 7.50114 14.0417 8.1475 14.0417 8.8087C14.0407 9.69503 13.6881 10.5448 13.0614 11.1715C12.4346 11.7982 11.5849 12.1508 10.6986 12.1518ZM10.6986 6.80283C10.3019 6.80283 9.91406 6.92047 9.58419 7.14088C9.25433 7.36129 8.99723 7.67456 8.84541 8.04109C8.69359 8.40761 8.65387 8.81093 8.73126 9.20003C8.80866 9.58913 8.9997 9.94655 9.28023 10.2271C9.56075 10.5076 9.91817 10.6986 10.3073 10.776C10.6964 10.8534 11.0997 10.8137 11.4662 10.6619C11.8327 10.5101 12.146 10.253 12.3664 9.92311C12.5868 9.59324 12.7045 9.20543 12.7045 8.8087C12.7039 8.27688 12.4924 7.76698 12.1164 7.39092C11.7403 7.01486 11.2304 6.80336 10.6986 6.80283Z" fill="#C9184A"/>
<path d="M10.6986 20.1756L5.05811 13.5235C4.97974 13.4236 4.90217 13.3231 4.82543 13.2219C3.86193 11.9527 3.34142 10.4025 3.34376 8.80898C3.34376 6.85835 4.11864 4.9876 5.49795 3.6083C6.87726 2.22899 8.748 1.4541 10.6986 1.4541C12.6493 1.4541 14.52 2.22899 15.8993 3.6083C17.2786 4.9876 18.0535 6.85835 18.0535 8.80898C18.0559 10.4017 17.5356 11.9513 16.5725 13.2199L16.5718 13.2219C16.5718 13.2219 16.3713 13.4853 16.3412 13.5208L10.6986 20.1756ZM5.89256 12.4162C5.89389 12.4162 6.04902 12.6221 6.08445 12.6663L10.6986 18.1082L15.3188 12.6589C15.3483 12.6221 15.5047 12.4149 15.5054 12.4142C16.2925 11.3772 16.7178 10.1108 16.7163 8.80898C16.7163 7.21301 16.0823 5.6824 14.9537 4.55387C13.8252 3.42535 12.2946 2.79135 10.6986 2.79135C9.10266 2.79135 7.57205 3.42535 6.44353 4.55387C5.31501 5.6824 4.68101 7.21301 4.68101 8.80898C4.67961 10.1116 5.10477 11.3788 5.89256 12.4162Z" fill="#C9184A"/>
</svg>
