<svg width="18" height="19" viewBox="0 0 18 19" fill="none" xmlns="http://www.w3.org/2000/svg">
<path d="M3 16.25C2.5875 16.25 2.2345 16.1033 1.941 15.8097C1.6475 15.5162 1.5005 15.163 1.5 14.75V6.5C1.5 6.0875 1.647 5.7345 1.941 5.441C2.235 5.1475 2.588 5.0005 3 5H6V3.5C6 3.0875 6.147 2.7345 6.441 2.441C6.735 2.1475 7.088 2.0005 7.5 2H10.5C10.9125 2 11.2657 2.147 11.5597 2.441C11.8538 2.735 12.0005 3.088 12 3.5V5H15C15.4125 5 15.7657 5.147 16.0597 5.441C16.3538 5.735 16.5005 6.088 16.5 6.5V14.75C16.5 15.1625 16.3533 15.5157 16.0597 15.8097C15.7662 16.1038 15.413 16.2505 15 16.25H3ZM3 14.75H15V6.5H3V14.75ZM7.5 5H10.5V3.5H7.5V5Z" fill="#A11C5C"/>
</svg>
