<svg width="15" height="15" viewBox="0 0 15 15" fill="none" xmlns="http://www.w3.org/2000/svg">
<path d="M14.8884 5.77651C14.8884 5.90746 14.811 6.05032 14.6563 6.20508L11.4152 9.36579L12.183 13.8301C12.189 13.8717 12.192 13.9313 12.192 14.0086C12.192 14.1336 12.1607 14.2393 12.0982 14.3256C12.0357 14.4119 11.9449 14.4551 11.8259 14.4551C11.7128 14.4551 11.5938 14.4194 11.4688 14.3479L7.45982 12.2408L3.45089 14.3479C3.31994 14.4194 3.20089 14.4551 3.09375 14.4551C2.96875 14.4551 2.875 14.4119 2.8125 14.3256C2.75 14.2393 2.71875 14.1336 2.71875 14.0086C2.71875 13.9729 2.7247 13.9134 2.73661 13.8301L3.50446 9.36579L0.254464 6.20508C0.105655 6.04436 0.03125 5.90151 0.03125 5.77651C0.03125 5.55627 0.197917 5.41936 0.53125 5.36579L5.01339 4.71401L7.02232 0.651506C7.13542 0.407458 7.28125 0.285435 7.45982 0.285435C7.63839 0.285435 7.78423 0.407458 7.89732 0.651506L9.90625 4.71401L14.3884 5.36579C14.7217 5.41936 14.8884 5.55627 14.8884 5.77651Z" fill="white"/>
</svg>
