<svg width="9" height="21" viewBox="0 0 9 21" fill="none" xmlns="http://www.w3.org/2000/svg">
<path fill-rule="evenodd" clip-rule="evenodd" d="M4.00278 20.5L8.05078 12.124L6.92879 4.53101H1.17278L0.0507812 12.124L4.00278 20.5ZM4.00278 10.715C4.22943 10.7046 4.454 10.7623 4.64755 10.8807C4.8411 10.9991 4.99476 11.1727 5.08875 11.3793C5.18273 11.5858 5.21271 11.8157 5.17485 12.0394C5.13699 12.2631 5.033 12.4703 4.8763 12.6344C4.71959 12.7985 4.51735 12.9119 4.29562 12.96C4.07389 13.0081 3.84284 12.9887 3.63223 12.9043C3.42163 12.8199 3.24111 12.6744 3.11395 12.4865C2.9868 12.2986 2.91882 12.0769 2.91878 11.85C2.91207 11.5558 3.02251 11.2709 3.22578 11.0581C3.42906 10.8452 3.70854 10.7218 4.00278 10.715ZM7.48978 0.5V3.31799H0.611786V0.5H7.48978Z" fill="#4A4A4A"/>
</svg>
