<svg width="21" height="21" viewBox="0 0 21 21" fill="none" xmlns="http://www.w3.org/2000/svg">
<path fill-rule="evenodd" clip-rule="evenodd" d="M17.0614 13.3483C16.4887 13.3448 15.9224 13.4682 15.403 13.7094C14.8836 13.9507 14.424 14.3039 14.0573 14.7437L8.2289 11.675C8.36874 11.2974 8.4404 10.898 8.44057 10.4954C8.44112 10.091 8.36784 9.6898 8.22433 9.31166L14.0485 6.24709C14.4145 6.6896 14.8743 7.04512 15.3947 7.28792C15.9151 7.53071 16.483 7.65469 17.0572 7.65085C17.7559 7.61016 18.4275 7.36573 18.9889 6.94775C19.5503 6.52977 19.9769 5.95652 20.2163 5.29881C20.4556 4.64109 20.497 3.92769 20.3355 3.24668C20.174 2.56566 19.8166 1.94687 19.3074 1.46666C18.7982 0.986462 18.1596 0.66589 17.4703 0.544524C16.781 0.423159 16.0712 0.506296 15.4286 0.783706C14.7861 1.06112 14.2388 1.52065 13.8544 2.10555C13.47 2.69044 13.2653 3.3751 13.2656 4.075C13.2645 4.47946 13.3377 4.88069 13.4814 5.25875L7.66184 8.32333C7.29646 7.88015 6.8367 7.52417 6.31616 7.28138C5.79562 7.03859 5.22744 6.91513 4.65308 6.92C4.16352 6.88772 3.67253 6.95632 3.21057 7.12154C2.7486 7.28677 2.32551 7.54511 1.96746 7.88054C1.60941 8.21597 1.32406 8.62135 1.12909 9.07157C0.934118 9.52179 0.833671 10.0072 0.833985 10.4979C0.8343 10.9885 0.935372 11.4738 1.13092 11.9238C1.32647 12.3738 1.61234 12.7788 1.97082 13.1137C2.32929 13.4487 2.75271 13.7065 3.21489 13.8711C3.67707 14.0358 4.16814 14.1037 4.65766 14.0708C5.23284 14.0745 5.80164 13.9502 6.32277 13.7067C6.84391 13.4633 7.30433 13.1068 7.67058 12.6633L13.4947 15.7321C13.3499 16.1127 13.2752 16.5165 13.2743 16.9238C13.2294 17.6837 13.4138 18.4397 13.8037 19.0936C14.1935 19.7475 14.7708 20.2692 15.4607 20.5911C16.1505 20.913 16.9212 21.0202 17.6728 20.8989C18.4243 20.7776 19.1221 20.4333 19.6757 19.9107C20.2292 19.3881 20.6131 18.7113 20.7773 17.9679C20.9416 17.2245 20.8788 16.449 20.5971 15.7417C20.3153 15.0345 19.8277 14.4282 19.1972 14.0015C18.5668 13.5747 17.8227 13.3471 17.0614 13.3483ZM17.0614 1.625C17.5406 1.65331 18.001 1.82131 18.3859 2.10825C18.7707 2.39518 19.0631 2.7885 19.227 3.23968C19.3909 3.69087 19.4191 4.18017 19.3082 4.64721C19.1972 5.11424 18.952 5.53858 18.6027 5.86786C18.2534 6.19714 17.8154 6.41693 17.3426 6.50016C16.8698 6.58338 16.3831 6.52638 15.9423 6.33617C15.5016 6.14597 15.1262 5.83088 14.8624 5.4298C14.5987 5.02873 14.4581 4.5592 14.4581 4.07917C14.479 3.40885 14.7647 2.77413 15.2527 2.31406C15.7406 1.85399 16.391 1.60648 17.0614 1.625ZM4.65641 12.9496C4.17722 12.9213 3.71679 12.7533 3.33195 12.4663C2.94712 12.1794 2.65471 11.7861 2.49081 11.3349C2.32691 10.8837 2.29869 10.3944 2.40963 9.92738C2.52057 9.46035 2.76581 9.03601 3.1151 8.70673C3.46439 8.37745 3.90246 8.15765 4.37522 8.07443C4.84798 7.99121 5.33475 8.0482 5.77549 8.23841C6.21623 8.42862 6.59165 8.74371 6.85541 9.14478C7.11916 9.54586 7.25972 10.0154 7.25974 10.4954C7.23872 11.1657 6.95295 11.8003 6.46501 12.2602C5.97707 12.7202 5.32673 12.9681 4.65641 12.9496ZM17.0614 19.3746C16.5822 19.3462 16.1219 19.1781 15.7371 18.8912C15.3523 18.6042 15.06 18.2109 14.8962 17.7597C14.7323 17.3086 14.7041 16.8193 14.8151 16.3523C14.926 15.8853 15.1713 15.461 15.5205 15.1318C15.8698 14.8025 16.3078 14.5827 16.7805 14.4995C17.2532 14.4162 17.74 14.4732 18.1807 14.6634C18.6214 14.8535 18.9968 15.1685 19.2606 15.5695C19.5244 15.9705 19.6651 16.44 19.6652 16.92C19.6442 17.5904 19.3585 18.2252 18.8704 18.6852C18.3824 19.1453 17.7319 19.3932 17.0614 19.3746Z" fill="#4A4A4A"/>
</svg>
