<svg width="18" height="17" viewBox="0 0 18 17" fill="none" xmlns="http://www.w3.org/2000/svg">
<path d="M17.838 6.55706C17.838 6.7105 17.7474 6.87788 17.566 7.05921L13.7685 10.7626L14.6682 15.9933C14.6752 16.0421 14.6787 16.1118 14.6787 16.2025C14.6787 16.349 14.642 16.4728 14.5688 16.5739C14.4956 16.675 14.3892 16.7256 14.2497 16.7256C14.1172 16.7256 13.9777 16.6837 13.8313 16.6L9.1341 14.1311L4.43691 16.6C4.28347 16.6837 4.14399 16.7256 4.01845 16.7256C3.87199 16.7256 3.76215 16.675 3.68892 16.5739C3.61569 16.4728 3.57907 16.349 3.57907 16.2025C3.57907 16.1607 3.58604 16.0909 3.59999 15.9933L4.49968 10.7626L0.691712 7.05921C0.517354 6.87091 0.430176 6.70352 0.430176 6.55706C0.430176 6.29902 0.625456 6.13861 1.01602 6.07584L6.26766 5.31215L8.62149 0.552197C8.754 0.266251 8.92487 0.123278 9.1341 0.123278C9.34333 0.123278 9.5142 0.266251 9.64671 0.552197L12.0005 5.31215L17.2522 6.07584C17.6427 6.13861 17.838 6.29902 17.838 6.55706Z" fill="url(#paint0_linear_160_381)"/>
<defs>
<linearGradient id="paint0_linear_160_381" x1="9.1341" y1="16.7256" x2="9.1341" y2="0.123278" gradientUnits="userSpaceOnUse">
<stop stop-color="#BA1167"/>
<stop offset="1" stop-color="#DD0D63"/>
</linearGradient>
</defs>
</svg>
