<svg width="15" height="15" viewBox="0 0 15 15" fill="none" xmlns="http://www.w3.org/2000/svg">
<path d="M3.0697 14.7998C2.92202 14.7998 2.77808 14.7533 2.65846 14.6667C2.44801 14.514 2.33952 14.2573 2.37671 14L3.02682 9.44737L0.474511 6.89501C0.289091 6.70954 0.222896 6.43599 0.303011 6.18626C0.382901 5.93674 0.595751 5.75295 0.854251 5.71027L4.70241 5.06802L6.64312 1.18742C6.76338 0.949905 7.00688 0.800085 7.2731 0.799805C7.53959 0.801265 7.78213 0.953915 7.89872 1.19355L9.75633 5.01027L13.6919 5.71114C13.9486 5.75674 14.1586 5.94117 14.237 6.18976C14.3157 6.43875 14.2489 6.71081 14.0638 6.89501L11.5115 9.44737L12.1625 14C12.1994 14.2587 12.0891 14.5165 11.8763 14.6685C11.6645 14.8207 11.3855 14.8423 11.1527 14.7245L7.3186 12.782L3.37944 14.7271C3.28322 14.775 3.17718 14.7998 3.0697 14.7998Z" fill="#C9184A"/>
</svg>
