<svg width="22" height="16" viewBox="0 0 22 16" fill="none" xmlns="http://www.w3.org/2000/svg">
<path fill-rule="evenodd" clip-rule="evenodd" d="M9.386 4.35696C9.2722 4.28865 9.1423 4.25176 9.00958 4.25006C8.87686 4.24837 8.74607 4.28192 8.63056 4.3473C8.51505 4.41268 8.41896 4.50755 8.3521 4.62221C8.28524 4.73687 8.25001 4.86723 8.25 4.99996V11C8.25001 11.1327 8.28524 11.263 8.3521 11.3777C8.41896 11.4924 8.51505 11.5872 8.63056 11.6526C8.74607 11.718 8.87686 11.7515 9.00958 11.7499C9.1423 11.7482 9.2722 11.7113 9.386 11.643L14.386 8.64296C14.497 8.57631 14.5889 8.48206 14.6526 8.36938C14.7164 8.2567 14.7499 8.12943 14.7499 7.99996C14.7499 7.87048 14.7164 7.74321 14.6526 7.63053C14.5889 7.51786 14.497 7.42361 14.386 7.35696L9.386 4.35696ZM12.542 7.99996L9.75 9.67496V6.32496L12.542 7.99996Z" fill="white"/>
<path fill-rule="evenodd" clip-rule="evenodd" d="M16.0294 0.641746C12.6812 0.379835 9.31762 0.379835 5.9694 0.641746L3.7284 0.817746C3.06624 0.869362 2.44038 1.14107 1.95054 1.5896C1.46069 2.03813 1.13502 2.63768 1.0254 3.29275C0.504553 6.4098 0.504553 9.59169 1.0254 12.7087C1.13502 13.3638 1.46069 13.9634 1.95054 14.4119C2.44038 14.8604 3.06624 15.1321 3.7284 15.1837L5.9684 15.3597C9.3174 15.6217 12.6814 15.6217 16.0304 15.3597L18.2704 15.1837C18.9326 15.1321 19.5584 14.8604 20.0483 14.4119C20.5381 13.9634 20.8638 13.3638 20.9734 12.7087C21.4934 9.59175 21.4934 6.40975 20.9734 3.29275C20.8638 2.63768 20.5381 2.03813 20.0483 1.5896C19.5584 1.14107 18.9326 0.869362 18.2704 0.817746L16.0294 0.641746ZM6.0864 2.13775C9.3574 1.88182 12.6434 1.88182 15.9144 2.13775L18.1544 2.31275C18.8304 2.36575 19.3834 2.87275 19.4944 3.54075C19.9877 6.49362 19.9877 9.50787 19.4944 12.4607C19.4402 12.7857 19.2789 13.0831 19.036 13.3057C18.7932 13.5282 18.4828 13.6631 18.1544 13.6887L15.9144 13.8637C12.6434 14.1197 9.3574 14.1197 6.0864 13.8637L3.8464 13.6887C3.518 13.6631 3.20764 13.5282 2.96478 13.3057C2.72193 13.0831 2.56056 12.7857 2.5064 12.4607C2.01308 9.50787 2.01308 6.49362 2.5064 3.54075C2.56056 3.21582 2.72193 2.91838 2.96478 2.69582C3.20764 2.47327 3.518 2.33841 3.8464 2.31275L6.0864 2.13775Z" fill="white"/>
</svg>
